<?xml version="1.0" encoding="utf-8"?>
<!-- Generator: Adobe Illustrator 16.0.0, SVG Export Plug-In . SVG Version: 6.00 Build 0)  -->
<!DOCTYPE svg PUBLIC "-//W3C//DTD SVG 1.1//EN" "http://www.w3.org/Graphics/SVG/1.1/DTD/svg11.dtd">
<svg version="1.1" id="圖層_1" xmlns="http://www.w3.org/2000/svg" xmlns:xlink="http://www.w3.org/1999/xlink" x="0px" y="0px"
	 width="100px" height="100px" viewBox="0 0 100 100" enable-background="new 0 0 100 100" xml:space="preserve">
<g>
	<path fill="#4D576C" d="M49.914,6.022C23.76,6.022,2.533,27.25,2.533,53.404c0,17.533,9.524,32.789,23.641,40.986l4.74-8.197
		C19.637,79.603,12.009,67.43,12.009,53.404c0-20.942,16.964-37.905,37.905-37.905c20.943,0,37.907,16.963,37.907,37.905
		c0,14.025-7.625,26.198-18.954,32.789l4.738,8.197c14.17-8.197,23.693-23.453,23.693-40.986
		C97.299,27.25,76.068,6.022,49.914,6.022z"/>
	<path fill="#4D576C" d="M78.56,53.404c0-15.684-12.853-28.43-28.539-28.43c-15.684,0-28.61,12.746-28.61,28.43
		c0,6.442,2.589,12.363,5.589,17.12v-0.2l1.75-1.809L31,66.203v-7.738c0-0.341,0.204-0.675,0.218-1.01
		c-0.287-1.303-0.351-2.655-0.351-4.051c0-10.47,8.53-18.953,19-18.953c10.473,0,18.977,8.482,18.977,18.953
		c0,1.394-0.372,2.746-0.659,4.047C68.198,57.787,68,58.123,68,58.465v7.738l2.749,2.313L73,70.324v0.202
		C76,65.77,78.56,59.848,78.56,53.404z"/>
</g>
<g>
	<path fill="#EA631A" d="M49.914,40.957c1.709,0,3.09,1.38,3.09,3.089v1.402c5.889,1.4,9.269,6.693,9.269,13.017v10.299l4.12,4.121
		v2.059H33.436v-2.059l4.12-4.121V58.465c0-6.344,3.357-11.617,9.269-13.017v-1.402C46.825,42.337,48.205,40.957,49.914,40.957"/>
	<path fill="#EA631A" d="M54.015,77.004c0,0.575-0.106,1.111-0.312,1.605c-0.533,1.235-1.625,2.145-2.963,2.43
		c-0.269,0.064-0.536,0.086-0.826,0.086c-2.285,0-4.12-1.856-4.139-4.121H54.015"/>
</g>
</svg>
