<?xml version="1.0" encoding="utf-8"?>
<!-- Generator: Adobe Illustrator 16.0.0, SVG Export Plug-In . SVG Version: 6.00 Build 0)  -->
<!DOCTYPE svg PUBLIC "-//W3C//DTD SVG 1.1//EN" "http://www.w3.org/Graphics/SVG/1.1/DTD/svg11.dtd">
<svg version="1.1" id="圖層_1" xmlns="http://www.w3.org/2000/svg" xmlns:xlink="http://www.w3.org/1999/xlink" x="0px" y="0px"
	 width="500px" height="100px" viewBox="0 0 500 100" enable-background="new 0 0 500 100" xml:space="preserve">
<polygon fill="#333333" points="59,42.175 41,42.173 50.002,57.826 "/>
<g>
	<g>
		<path fill="#333333" d="M450.456,90.877c-22.265,0-40.379-18.114-40.379-40.379s18.114-40.379,40.379-40.379
			s40.378,18.114,40.378,40.379S472.721,90.877,450.456,90.877z M450.456,19.119c-17.303,0-31.379,14.076-31.379,31.379
			s14.076,31.379,31.379,31.379c17.302,0,31.378-14.076,31.378-31.379S467.758,19.119,450.456,19.119z"/>
	</g>
	<circle fill="#333333" cx="450.455" cy="50.498" r="23.207"/>
</g>
<g>
	<path fill="#333333" d="M350.229,90.877c-22.265,0-40.379-18.114-40.379-40.379s18.114-40.379,40.379-40.379
		s40.378,18.114,40.378,40.379S372.493,90.877,350.229,90.877z M350.229,19.119c-17.303,0-31.379,14.076-31.379,31.379
		s14.076,31.379,31.379,31.379c17.302,0,31.378-14.076,31.378-31.379S367.53,19.119,350.229,19.119z"/>
</g>
<g>
	<path fill="#333333" d="M188,71.5c0,9.112-7.388,16.5-16.5,16.5h-43c-9.112,0-16.5-7.388-16.5-16.5v-43
		c0-9.113,7.388-16.5,16.5-16.5h43c9.112,0,16.5,7.387,16.5,16.5V71.5z M179,28.5c0-4.142-3.357-7.5-7.5-7.5h-43
		c-4.143,0-7.5,3.358-7.5,7.5v43c0,4.143,3.357,7.5,7.5,7.5h43c4.143,0,7.5-3.357,7.5-7.5V28.5z"/>
</g>
<g>
	<g>
		<g>
			<g>
				<g>
					<path fill="#333333" d="M278,42.124V71.5c0,4.136-3.364,7.5-7.5,7.5h-43c-4.136,0-7.5-3.364-7.5-7.5v-43
						c0-4.136,3.364-7.5,7.5-7.5h33.461l5.27-8.461c0.118-0.189,0.259-0.357,0.385-0.539H227.5c-9.098,0-16.5,7.402-16.5,16.5v43
						c0,9.098,7.402,16.5,16.5,16.5h43c9.098,0,16.5-7.402,16.5-16.5v-43c0-0.258-0.027-0.509-0.039-0.765L278,42.124z"/>
				</g>
			</g>
		</g>
	</g>
	<g>
		<g>
			<path fill="#333333" d="M250.049,69.438c-1.816,0-3.533-0.85-4.637-2.306l-14.91-19.688c-1.938-2.562-1.434-6.208,1.127-8.147
				c2.564-1.94,6.209-1.433,8.148,1.126l9.806,12.948l24.663-39.599c1.698-2.725,5.283-3.557,8.014-1.863
				c2.726,1.697,3.559,5.285,1.86,8.012l-29.134,46.775c-1.012,1.627-2.759,2.648-4.672,2.736
				C250.225,69.436,250.137,69.438,250.049,69.438z"/>
		</g>
	</g>
</g>
</svg>
