<?xml version="1.0" encoding="utf-8"?>
<!-- Generator: Adobe Illustrator 16.0.0, SVG Export Plug-In . SVG Version: 6.00 Build 0)  -->
<!DOCTYPE svg PUBLIC "-//W3C//DTD SVG 1.1//EN" "http://www.w3.org/Graphics/SVG/1.1/DTD/svg11.dtd">
<svg version="1.1" id="圖層_1" xmlns="http://www.w3.org/2000/svg" xmlns:xlink="http://www.w3.org/1999/xlink" x="0px" y="0px"
	 width="1000px" height="1000px" viewBox="0 0 1000 1000" enable-background="new 0 0 1000 1000" xml:space="preserve">
<g>
	<g>
		<g>
			<path fill="#66C6E2" d="M791.354,931.637c-1.609-6.43-4.625-8.91-10.176-9.805c-3.201-0.471-18.564-1.074-30.756-1.074h0.055
				c-12.193,0-27.557,0.604-30.758,1.074c-5.551,0.895-8.568,3.375-10.174,9.805c-0.541,2.164-1.287,14.014-1.287,18.533v0.992
				c0,4.521,0.746,16.371,1.287,18.533c1.605,6.434,4.623,8.91,10.174,9.807c3.201,0.471,18.564,1.074,30.758,1.074h-0.055
				c12.191,0,27.555-0.604,30.756-1.074c5.551-0.895,8.566-3.373,10.176-9.807c0.539-2.162,1.285-14.012,1.285-18.533v-0.992
				C792.639,945.65,791.893,933.801,791.354,931.637z M741.686,962.514v-23.967l22.416,11.701L741.686,962.514z"/>
		</g>
	</g>
	<polygon id="Shadow_1_" opacity="0.7" fill="#66C6E2" points="741.686,938.547 764.102,950.248 761.533,951.652 	"/>
</g>
<g>
	<path fill="#66C6E2" d="M577.34,22.367c-6.021-6.021-10.537-5.117-10.537-5.117l-21.078,21.075l-24.088,24.088l-4.211,19.871
		l19.867-4.214l24.088-24.088l21.078-21.074C582.459,32.908,583.363,28.39,577.34,22.367z M536.109,75.68l-6.771,1.458
		c-0.656-1.224-1.441-2.446-2.883-3.887c-1.441-1.441-2.666-2.228-3.887-2.884l1.459-6.771l1.959-1.959c0,0,3.686,0.074,7.846,4.236
		c4.162,4.161,4.236,7.85,4.236,7.85L536.109,75.68z"/>
</g>
<g>
	<path fill="#66C6E2" d="M71.272,168.635c-10.285-3.749-13.572-6.91-13.572-13.68c0-4.064,3.141-2.737,4.52-10.179
		c0.572-3.087,3.346-0.049,3.876-7.098c0-2.81-1.514-3.507-1.514-3.507s0.77-4.156,1.071-7.356
		c0.373-3.985-2.303-14.284-16.577-14.284c-14.274,0-16.952,10.298-16.578,14.284c0.301,3.2,1.071,7.356,1.071,7.356
		s-1.514,0.698-1.514,3.507c0.529,7.049,3.303,4.01,3.875,7.098c1.38,7.442,4.519,6.115,4.519,10.179
		c0,6.77-3.285,9.932-13.57,13.68c-10.317,3.76-17.02,7.593-17.02,10.207c0,2.613,0,8.785,0,8.785h39.216h39.215
		c0,0,0-6.171,0-8.785C88.292,176.228,81.589,172.395,71.272,168.635z"/>
</g>
<g>
	<path fill="#66C6E2" d="M313.854,130.41c2.036,1.095,30.238,16.244,31.288,16.808c1.051,0.565,2.41,0.837,3.781,0.837
		s2.731-0.272,3.781-0.837c1.049-0.563,29.252-15.713,31.289-16.808c2.037-1.093,3.967-4.529,0.222-4.529H313.63
		C309.889,125.881,311.814,129.317,313.854,130.41z M384.854,138.754c-2.314,1.208-30.734,16.07-32.151,16.808
		c-1.418,0.741-2.411,0.836-3.781,0.836s-2.363-0.096-3.781-0.836c-1.416-0.738-29.835-15.6-32.151-16.808
		c-1.628-0.849-1.615,0.146-1.615,0.916c0,0.769,0,30.605,0,30.605c0,1.749,2.33,4,4.138,4h66.82c1.809,0,4.138-2.251,4.138-4
		c0,0,0-29.836,0-30.605C386.47,138.9,386.486,137.905,384.854,138.754z"/>
</g>
<g>
	<path fill="#66C6E2" d="M85.663,50.997L52.188,17.49c-1.712-1.774-4.512-1.774-6.224,0L12.489,50.997
		c-1.712,1.774-1.073,3.228,1.419,3.228h6.978v25.732c0,1.861,0.08,3.37,3.439,3.37h16.248V57.52h17.004v25.807h17.058
		c2.562,0,2.63-1.509,2.63-3.37V54.225h6.979C86.734,54.225,87.374,52.771,85.663,50.997z"/>
</g>
<path fill="#66C6E2" d="M244.265,627.621c1.742,1.701,18.782,19.592,18.782,19.592c0.93,0.906,1.395,2.096,1.395,3.285
	c0,1.191-0.465,2.379-1.395,3.289c0,0-17.041,17.889-18.782,19.59c-1.744,1.701-4.879,1.816-6.742,0
	c-1.859-1.814-2.008-4.346,0.002-6.574l15.631-16.305l-15.631-16.305c-2.01-2.225-1.861-4.758-0.002-6.572
	C239.385,625.805,242.521,625.92,244.265,627.621z"/>
<path fill="#66C6E2" d="M256.251,526.625c-1.744,1.701-18.784,19.59-18.784,19.59c-0.929,0.908-1.395,2.098-1.395,3.287
	c0,1.191,0.466,2.381,1.395,3.287c0,0,17.04,17.891,18.784,19.592c1.742,1.701,4.878,1.816,6.74,0
	c1.86-1.814,2.008-4.348-0.001-6.574l-15.631-16.305l15.631-16.305c2.009-2.227,1.861-4.758,0.001-6.572
	C261.129,524.809,257.993,524.924,256.251,526.625z"/>
<path fill="#66C6E2" d="M783.719,19.015c-1.434,0.505-72.262,25.465-73.656,25.956c-1.186,0.417-1.449,1.439-0.043,2.002
	c1.676,0.671,15.838,6.346,15.838,6.346h-0.002l9.389,3.762c0,0,45.213-33.202,45.828-33.652c0.615-0.453,1.326,0.396,0.877,0.881
	c-0.447,0.488-32.838,35.517-32.838,35.517c-0.002,0.001-0.002,0.001-0.002,0.002l-1.889,2.1l2.498,1.346v0
	c0,0,19.4,10.443,20.783,11.187c1.211,0.652,2.787,0.11,3.137-1.397c0.412-1.778,11.869-51.153,12.125-52.251
	C786.094,19.381,785.152,18.51,783.719,19.015z M735.158,79.621c0,1.031,0.578,1.317,1.381,0.587
	c1.047-0.949,11.885-10.677,11.885-10.677l-13.266-6.865V79.621z"/>
<path fill="#66C6E2" d="M167.328,580.453c1.116,1.127,1.116,2.953,0,4.082c-1.114,1.127-2.926,1.129-4.042,0l-32.666-32.99
	c-1.116-1.129-1.116-2.957,0-4.084l32.666-32.99c1.116-1.129,2.926-1.129,4.042,0c1.116,1.125,1.116,2.955,0.002,4.082
	l-29.792,30.949L167.328,580.453z"/>
<path fill="#66C6E2" d="M130.621,681.449c-1.116,1.129-1.116,2.955,0,4.082s2.925,1.129,4.043,0l32.665-32.99
	c1.116-1.127,1.116-2.955,0-4.084l-32.665-32.99c-1.118-1.129-2.925-1.129-4.043,0c-1.116,1.127-1.116,2.953,0,4.082l29.79,30.949
	L130.621,681.449z"/>
<path fill="#66C6E2" d="M450.744,910.617c-22.12,0-40.051,17.93-40.051,40.049c0,22.121,17.931,40.051,40.051,40.051
	s40.05-17.93,40.05-40.051C490.793,928.547,472.864,910.617,450.744,910.617z M440.941,967.266h-8.112v-26.098h8.112V967.266z
	 M436.832,937.965c-2.563,0-4.217-1.814-4.217-4.055c0-2.295,1.708-4.057,4.322-4.057c2.616,0,4.218,1.762,4.27,4.057
	C441.207,936.15,439.553,937.965,436.832,937.965z M470.558,967.266h-8.111v-14.463c0-3.363-1.176-5.658-4.11-5.658
	c-2.241,0-3.574,1.549-4.162,3.045c-0.213,0.531-0.268,1.279-0.268,2.025v15.051h-8.11v-17.771c0-3.256-0.106-5.977-0.214-8.326
	h7.044l0.374,3.629h0.159c1.068-1.707,3.683-4.215,8.061-4.215c5.336,0,9.338,3.574,9.338,11.258V967.266z"/>
<path fill="#66C6E2" d="M349.922,910.617c-22.121,0-40.051,17.93-40.051,40.049c0,22.121,17.93,40.051,40.051,40.051
	c22.119,0,40.05-17.93,40.05-40.051C389.972,928.547,372.041,910.617,349.922,910.617z M352.662,960.166
	c-2.569-0.201-3.646-1.471-5.657-2.693c-1.106,5.803-2.459,11.367-6.465,14.273c-1.237-8.771,1.815-15.361,3.231-22.354
	c-2.415-4.068,0.292-12.254,5.388-10.236c6.27,2.48-5.43,15.121,2.424,16.699c8.202,1.648,11.549-14.229,6.465-19.393
	c-7.349-7.453-21.388-0.17-19.662,10.504c0.42,2.609,3.116,3.4,1.077,7.004c-4.704-1.043-6.106-4.752-5.926-9.697
	c0.29-8.094,7.273-13.76,14.274-14.543c8.856-0.992,17.169,3.25,18.316,11.58C367.42,950.715,362.129,960.898,352.662,960.166z"/>
<path fill="#66C6E2" d="M549.965,910.617c-22.121,0-40.051,17.93-40.051,40.049c0,22.121,17.93,40.051,40.051,40.051
	s40.051-17.93,40.051-40.051C590.016,928.547,572.086,910.617,549.965,910.617z M560.717,967.943
	c-1.639,0.781-3.121,1.33-4.449,1.645c-1.326,0.313-2.764,0.471-4.307,0.471c-1.752,0-3.299-0.225-4.646-0.67
	c-1.344-0.449-2.492-1.088-3.445-1.914c-0.951-0.83-1.609-1.713-1.977-2.645c-0.367-0.934-0.551-2.287-0.551-4.061v-13.604h-4.234
	v-5.488c1.504-0.496,2.795-1.205,3.867-2.129c1.074-0.924,1.936-2.035,2.584-3.332c0.65-1.293,1.096-2.941,1.342-4.943h5.449v9.805
	h9.096v6.088h-9.096v9.945c0,2.248,0.119,3.691,0.357,4.332c0.232,0.637,0.672,1.146,1.311,1.529c0.85,0.514,1.818,0.77,2.908,0.77
	c1.941,0,3.871-0.639,5.791-1.914V967.943z"/>
<path fill="#66C6E2" d="M145.207,939.34c-1.009-3.545-2.635-4.592-5.166-4.592c-0.273,0-0.547,0.035-0.811,0.109
	c-1.096,0.311-1.966,1.225-2.452,2.582c-0.493,1.379-0.527,2.814-0.098,4.457c0.77,2.922,2.847,5.041,4.943,5.041
	c0.275,0,0.547-0.037,0.81-0.111C144.724,946.182,146.157,942.684,145.207,939.34z M148.975,910.617
	c-22.12,0-40.051,17.93-40.051,40.049c0,22.121,17.931,40.051,40.051,40.051c22.121,0,40.05-17.93,40.05-40.051
	C189.025,928.547,171.096,910.617,148.975,910.617z M146.667,967.863c-2.514,1.223-5.225,1.354-6.272,1.354
	c-0.199,0-0.314-0.004-0.332-0.004c0,0-0.075,0.002-0.204,0.002c-1.632,0-9.773-0.377-9.773-7.791c0-7.283,8.864-7.854,11.581-7.854
	l0.071,0.002c-1.569-2.094-1.243-4.209-1.243-4.209c-0.138,0.01-0.339,0.02-0.587,0.02c-1.023,0-2.995-0.164-4.691-1.258
	c-2.075-1.336-3.126-3.607-3.126-6.758c0-8.889,9.706-9.248,9.803-9.25h9.695v0.211c0,1.086-1.946,1.291-3.276,1.473
	c-0.448,0.063-1.353,0.156-1.608,0.289c2.454,1.309,2.852,3.371,2.852,6.441c0,3.494-1.369,5.344-2.821,6.643
	c-0.896,0.803-1.605,1.438-1.605,2.279c0,0.828,0.971,1.682,2.094,2.668c1.842,1.617,4.365,3.832,4.365,7.553
	C151.587,963.523,149.932,966.279,146.667,967.863z M167.864,950.629h-6.323v6.324h-4.005v-6.324h-6.323v-4.004h6.323v-6.324h4.005
	v6.324h6.323V950.629z M141.56,955.471c-0.217,0-0.435,0.008-0.653,0.023c-1.854,0.135-3.561,0.828-4.802,1.955
	c-1.226,1.109-1.852,2.504-1.762,3.928c0.187,2.961,3.371,4.701,7.238,4.42c3.809-0.277,6.344-2.465,6.158-5.432
	C147.562,957.574,145.139,955.471,141.56,955.471z"/>
<path fill="#66C6E2" d="M49.076,910.617c-22.12,0-40.05,17.93-40.05,40.049c0,22.121,17.931,40.051,40.05,40.051
	c22.119,0,40.05-17.93,40.05-40.051C89.126,928.547,71.195,910.617,49.076,910.617z M58.562,938.293h-6.021
	c-0.712,0-1.506,0.936-1.506,2.189v4.348h7.528v6.197h-7.528v18.611h-7.108v-18.611h-6.443v-6.197h6.443v-3.648
	c0-5.23,3.631-9.486,8.615-9.486h6.021V938.293z"/>
<path fill="#66C6E2" d="M250.257,910.617c-22.121,0-40.051,17.93-40.051,40.049c0,22.121,17.93,40.051,40.051,40.051
	c22.119,0,40.051-17.93,40.051-40.051C290.308,928.547,272.376,910.617,250.257,910.617z M266.545,943.426
	c0.017,0.338,0.023,0.68,0.023,1.021c0,10.424-7.935,22.445-22.444,22.445c-4.454,0-8.6-1.309-12.09-3.547
	c0.616,0.074,1.244,0.111,1.881,0.111c3.696,0,7.097-1.262,9.797-3.377c-3.452-0.063-6.366-2.344-7.37-5.477
	c0.483,0.09,0.976,0.141,1.485,0.141c0.718,0,1.416-0.096,2.077-0.277c-3.607-0.725-6.328-3.912-6.328-7.734
	c0-0.033,0-0.066,0.001-0.1c1.063,0.592,2.28,0.945,3.572,0.988c-2.117-1.416-3.509-3.83-3.509-6.568
	c0-1.445,0.388-2.799,1.068-3.965c3.89,4.773,9.703,7.914,16.259,8.242c-0.135-0.576-0.204-1.18-0.204-1.799
	c0-4.355,3.532-7.887,7.887-7.887c2.27,0,4.319,0.959,5.758,2.49c1.798-0.354,3.486-1.008,5.01-1.914
	c-0.59,1.842-1.84,3.389-3.467,4.365c1.595-0.191,3.115-0.615,4.53-1.242C269.425,940.926,268.086,942.314,266.545,943.426z"/>
<g>
	<polygon fill="#66C6E2" points="348.742,618.792 348.738,634.759 319.467,634.755 319.467,666.267 348.742,666.267 
		348.738,682.206 380.377,650.495 	"/>
</g>
<g>
	<polygon fill="#66C6E2" points="351.102,517.797 351.105,533.764 380.377,533.76 380.377,565.271 351.102,565.271 351.105,581.209 
		319.467,549.5 	"/>
</g>
<g>
	<path fill="#66C6E2" d="M280.25,25.34c-6.975-6.401-18.281-6.401-25.257,0l-4.736,4.347l-4.738-4.347
		c-6.973-6.401-18.281-6.401-25.256,0c-7.847,7.202-7.847,18.877,0,26.079l29.994,27.527l29.994-27.527
		C288.097,44.217,288.097,32.542,280.25,25.34z"/>
</g>
<g>
	<path fill="#66C6E2" d="M949.467,16.367c-11.521,0-20.861,9.34-20.861,20.86c0,19.917,20.861,45.891,20.861,45.891
		s20.859-25.975,20.859-45.891C970.326,25.708,960.986,16.367,949.467,16.367z M949.467,48.742c-6.223,0-11.264-5.043-11.264-11.264
		c0-6.222,5.041-11.265,11.264-11.265c6.221,0,11.264,5.043,11.264,11.265C960.73,43.698,955.688,48.742,949.467,48.742z"/>
</g>
<g>
	<path fill="#66C6E2" d="M890.047,28.983l-19.496-12.21c-0.863-0.541-1.943-0.541-2.809,0l-18.09,11.332l-18.09-11.332
		c-0.863-0.541-1.945-0.541-2.809,0l-19.496,12.21c-0.822,0.515-1.324,1.442-1.324,2.443v48.842c0,1.027,0.529,1.974,1.385,2.479
		c0.855,0.505,1.904,0.493,2.75-0.036l18.092-11.33l18.088,11.33c0.865,0.541,1.945,0.541,2.811,0l18.09-11.33l18.09,11.33
		c0.432,0.27,0.918,0.407,1.404,0.407c0.463,0,0.926-0.124,1.346-0.371c0.855-0.506,1.383-1.452,1.383-2.479V31.426
		C891.371,30.425,890.869,29.498,890.047,28.983z M827.43,66.445l-14.037,8.792V33.039l14.037-8.792V66.445z M846.924,75.237
		l-14.037-8.792V24.248l14.037,8.792V75.237z M866.42,66.445l-14.037,8.792V33.04l14.037-8.792V66.445z M885.916,75.237
		l-14.039-8.792V24.248l14.039,8.792V75.237z"/>
</g>
<g>
	<path fill="#66C6E2" d="M548.43,110.032c-22.117,0.296-39.807,18.465-39.512,40.582s18.465,39.808,40.582,39.512
		s39.807-18.465,39.512-40.583S570.547,109.735,548.43,110.032z M549.387,181.695c-17.461,0.232-31.805-13.733-32.039-31.195
		c-0.232-17.46,13.734-31.804,31.195-32.037c17.461-0.234,31.805,13.731,32.039,31.192
		C580.814,167.116,566.848,181.46,549.387,181.695z M529.992,168.873c0,0,19.063-2.62,27.195-10.751
		c8.129-8.131,10.748-27.192,10.748-27.192s-19.061,2.619-27.189,10.75C532.613,149.81,529.992,168.873,529.992,168.873z
		 M544.855,145.789c3.418-3.418,9.953-5.844,15.559-7.35c-1.51,5.595-3.945,12.179-7.34,15.572c-2.268,2.269-5.949,2.271-8.219,0
		C542.584,151.741,542.584,148.06,544.855,145.789z"/>
</g>
<g>
	<path fill="#66C6E2" d="M648.846,111.7c-21.193,0.283-38.146,17.698-37.865,38.895c0.283,21.188,17.697,38.144,38.893,37.862
		c21.191-0.285,38.146-17.7,37.865-38.895C687.455,128.373,670.041,111.417,648.846,111.7z M653.102,124.491
		c3.9,0,5.053,2.264,5.053,4.852c0,3.234-2.59,6.226-7.006,6.226c-3.695,0-5.453-1.86-5.35-4.932
		C645.799,128.048,647.967,124.491,653.102,124.491z M643.098,174.067c-2.664,0-4.619-1.617-2.754-8.734l3.059-12.62
		c0.533-2.022,0.623-2.831,0-2.831c-0.799,0-4.262,1.396-6.305,2.772l-1.332-2.184c6.486-5.416,13.945-8.594,17.143-8.594
		c2.664,0,3.109,3.154,1.777,8.005l-3.504,13.268c-0.621,2.345-0.354,3.153,0.266,3.153c0.803,0,3.422-0.973,5.996-2.995
		l1.514,2.022C652.646,171.637,645.764,174.067,643.098,174.067z"/>
</g>
<path fill="#66C6E2" d="M748.936,111.7c-21.195,0.283-38.148,17.698-37.865,38.895c0.283,21.188,17.695,38.144,38.891,37.862
	c21.193-0.285,38.146-17.7,37.865-38.895C787.543,128.373,770.129,111.417,748.936,111.7z M748.822,173.441l-0.211-0.003
	c-3.266-0.096-5.566-2.501-5.475-5.716c0.094-3.16,2.449-5.455,5.605-5.455l0.189,0.003c3.355,0.099,5.629,2.478,5.535,5.787
	C754.375,171.226,752.053,173.441,748.822,173.441z M762.553,146.191c-0.768,1.09-2.457,2.444-4.584,4.102l-2.342,1.617
	c-1.285,0.999-2.061,1.939-2.352,2.864c-0.23,0.729-0.342,0.921-0.363,2.402l-0.004,0.376h-8.941l0.025-0.756
	c0.109-3.111,0.186-4.941,1.475-6.453c2.023-2.375,6.484-5.248,6.674-5.368c0.639-0.482,1.178-1.03,1.578-1.615
	c0.939-1.294,1.355-2.314,1.355-3.315c0-1.388-0.412-2.674-1.229-3.818c-0.783-1.103-2.27-1.662-4.424-1.662
	c-2.135,0-3.596,0.677-4.471,2.066c-0.9,1.429-1.355,2.93-1.355,4.464v0.381h-9.221l0.016-0.398
	c0.238-5.646,2.254-9.714,5.99-12.087c2.35-1.511,5.268-2.277,8.676-2.277c4.461,0,8.227,1.083,11.191,3.222
	c3.004,2.166,4.527,5.41,4.527,9.643C764.775,141.946,764.027,144.17,762.553,146.191z"/>
<g>
	<path fill="#66C6E2" d="M253.381,155.203c-6.605,6.605-14.256,12.92-17.279,9.896c-4.33-4.33-6.999-8.1-16.542-0.43
		c-9.543,7.673-2.214,12.785,1.98,16.98c4.84,4.838,22.879,0.254,40.711-17.576c17.83-17.832,22.417-35.872,17.575-40.713
		c-4.195-4.194-9.308-11.522-16.977-1.978c-7.672,9.54-3.902,12.21,0.428,16.54C266.301,140.947,259.987,148.596,253.381,155.203z"
		/>
</g>
<g>
	<path fill="#66C6E2" d="M675.391,22.539h-50.063c-4.588,0-8.344,3.755-8.344,8.344v29.204c0,4.589,3.756,8.344,8.344,8.344h16.688
		l16.689,12.516V68.431h16.686c4.59,0,8.346-3.755,8.346-8.344V30.883C683.736,26.294,679.98,22.539,675.391,22.539z"/>
</g>
<g>
	<path fill="#66C6E2" d="M177.279,49.743c0-4.37,2.689-7.82,6.741-10.191c-0.729-2.438-1.697-4.775-2.887-6.975
		c-4.542,1.189-8.218-0.591-11.31-3.682c-3.09-3.09-4.036-6.769-2.847-11.31c-2.2-1.19-4.535-2.157-6.977-2.887
		c-2.371,4.052-6.654,6.741-11.024,6.741c-4.369,0-8.652-2.689-11.025-6.741c-2.439,0.729-4.775,1.697-6.975,2.885
		c1.188,4.543,0.243,8.22-2.848,11.312c-3.091,3.091-6.77,4.871-11.311,3.683c-1.19,2.199-2.156,4.536-2.886,6.974
		c4.051,2.371,6.741,5.821,6.741,10.191s-2.69,8.653-6.741,11.024c0.73,2.44,1.696,4.776,2.886,6.976
		c4.543-1.189,8.22-0.242,11.311,2.848c3.091,3.092,4.035,6.769,2.848,11.31c2.2,1.19,4.535,2.159,6.977,2.887
		c2.371-4.052,6.654-6.742,11.023-6.742c4.371,0,8.653,2.69,11.024,6.742c2.441-0.729,4.777-1.696,6.977-2.887
		c-1.188-4.541-0.243-8.217,2.847-11.309c3.092-3.09,6.769-4.871,11.31-3.682c1.19-2.2,2.158-4.536,2.887-6.976
		C179.968,57.562,177.279,54.113,177.279,49.743z M148.975,64.983c-8.417,0-15.239-6.824-15.239-15.24
		c0-8.417,6.823-15.241,15.239-15.241s15.24,6.824,15.24,15.241C164.215,58.159,157.392,64.983,148.975,64.983z"/>
</g>
<g>
	<path fill="#66C6E2" d="M87.458,549.5c0-21.195-17.185-38.379-38.381-38.379c-21.199,0-38.382,17.184-38.382,38.379
		c0,21.199,17.183,38.385,38.382,38.385C70.273,587.885,87.458,570.699,87.458,549.5z M19.038,549.5
		c0-16.588,13.449-30.037,30.039-30.037c16.589,0,30.038,13.449,30.038,30.037c0,16.592-13.448,30.041-30.038,30.041
		C32.486,579.541,19.038,566.092,19.038,549.5z M65.138,557.012v-15.02H48.074v-9.387l-15.895,16.896l15.895,16.896v-9.387H65.138z"
		/>
</g>
<g>
	<path fill="#66C6E2" d="M10.694,650.5c0,21.197,17.185,38.381,38.382,38.381c21.199,0,38.381-17.184,38.381-38.381
		s-17.183-38.383-38.381-38.383C27.879,612.117,10.694,629.303,10.694,650.5z M79.114,650.5c0,16.59-13.448,30.037-30.038,30.037
		c-16.59,0-30.039-13.447-30.039-30.037c0-16.592,13.449-30.039,30.039-30.039C65.666,620.461,79.114,633.908,79.114,650.5z
		 M33.014,642.99v15.02h17.064v9.387l15.895-16.898l-15.895-16.895v9.387H33.014z"/>
</g>
<path fill="#66C6E2" d="M273.135,844.506c-1.701,1.741-19.592,18.782-19.592,18.782c-0.906,0.93-2.096,1.395-3.285,1.395
	c-1.191,0-2.379-0.465-3.289-1.395c0,0-17.889-17.041-19.59-18.782c-1.701-1.744-1.816-4.88,0-6.742
	c1.814-1.859,4.346-2.008,6.574,0.002l16.305,15.632l16.305-15.632c2.225-2.01,4.758-1.861,6.572-0.002
	C274.951,839.626,274.836,842.762,273.135,844.506z"/>
<path fill="#66C6E2" d="M273.135,755.497c-1.701-1.744-19.59-18.784-19.59-18.784c-0.908-0.929-2.098-1.395-3.287-1.395
	c-1.191,0-2.381,0.466-3.287,1.395c0,0-17.891,17.04-19.592,18.784c-1.701,1.741-1.816,4.878,0,6.739
	c1.814,1.86,4.348,2.008,6.574-0.001l16.305-15.632l16.305,15.632c2.227,2.009,4.758,1.861,6.572,0.001
	C274.951,760.375,274.836,757.238,273.135,755.497z"/>
<path fill="#66C6E2" d="M118.023,767.856c-1.127,1.116-2.953,1.116-4.082,0c-1.127-1.114-1.129-2.926,0-4.042l32.99-32.666
	c1.129-1.116,2.957-1.116,4.084,0l32.99,32.666c1.129,1.116,1.129,2.926,0,4.042c-1.125,1.116-2.955,1.116-4.082,0.002
	l-30.949-29.792L118.023,767.856z"/>
<path fill="#66C6E2" d="M118.024,832.145c-1.129-1.116-2.955-1.116-4.082,0s-1.129,2.925,0,4.043l32.99,32.665
	c1.127,1.116,2.955,1.116,4.084,0l32.99-32.665c1.129-1.118,1.129-2.926,0-4.043c-1.127-1.116-2.953-1.116-4.082,0l-30.949,29.79
	L118.024,832.145z"/>
<path fill="#66C6E2" d="M459.92,564.978c0.559,0.563,0.559,1.477,0,2.041c-0.557,0.563-1.463,0.564-2.021,0l-16.333-16.495
	c-0.559-0.564-0.559-1.479,0-2.042l16.333-16.495c0.558-0.564,1.463-0.564,2.021,0c0.559,0.563,0.559,1.478,0.001,2.041
	l-14.896,15.475L459.92,564.978z"/>
<path fill="#66C6E2" d="M441.567,665.974c-0.559,0.564-0.559,1.478,0,2.041c0.558,0.563,1.462,0.564,2.021,0l16.332-16.495
	c0.559-0.563,0.559-1.478,0-2.042l-16.332-16.495c-0.56-0.564-1.463-0.564-2.021,0c-0.559,0.563-0.559,1.477,0,2.041l14.895,15.475
	L441.567,665.974z"/>
<path fill="#66C6E2" d="M435.268,758.68c-0.563,0.559-1.477,0.559-2.041,0c-0.563-0.557-0.564-1.463,0-2.021l16.495-16.332
	c0.564-0.559,1.479-0.559,2.042,0l16.495,16.332c0.564,0.559,0.564,1.463,0,2.021c-0.563,0.559-1.478,0.559-2.041,0.001
	l-15.475-14.896L435.268,758.68z"/>
<path fill="#66C6E2" d="M435.269,841.321c-0.564-0.558-1.478-0.558-2.041,0s-0.564,1.462,0,2.021l16.495,16.333
	c0.563,0.558,1.478,0.558,2.042,0l16.495-16.333c0.564-0.56,0.564-1.463,0-2.021c-0.563-0.558-1.477-0.558-2.041,0l-15.475,14.896
	L435.269,841.321z"/>
<g>
	<polygon fill="#66C6E2" points="381.629,849.318 365.662,849.314 365.666,820.043 334.154,820.043 334.154,849.318 
		318.215,849.314 349.926,880.953 	"/>
</g>
<g>
	<polygon fill="#66C6E2" points="381.628,750.683 365.661,750.686 365.665,779.958 334.153,779.958 334.153,750.683 
		318.216,750.686 349.925,719.048 	"/>
</g>
<g>
	<path fill="#66C6E2" d="M49.079,787.885c21.195,0,38.379-17.185,38.379-38.381c0-21.199-17.184-38.383-38.379-38.383
		c-21.199,0-38.385,17.184-38.385,38.383C10.694,770.7,27.879,787.885,49.079,787.885z M49.079,719.465
		c16.588,0,30.037,13.449,30.037,30.039c0,16.589-13.449,30.037-30.037,30.037c-16.592,0-30.041-13.448-30.041-30.037
		C19.038,732.914,32.487,719.465,49.079,719.465z M41.567,765.564h15.02v-17.063h9.387l-16.896-15.895L32.18,748.501h9.387V765.564z
		"/>
</g>
<g>
	<path fill="#66C6E2" d="M49.075,812.116c-21.197,0-38.381,17.186-38.381,38.383c0,21.198,17.184,38.381,38.381,38.381
		s38.383-17.183,38.383-38.381C87.458,829.302,70.272,812.116,49.075,812.116z M49.075,880.536
		c-16.59,0-30.037-13.448-30.037-30.037c0-16.59,13.447-30.039,30.037-30.039c16.592,0,30.039,13.449,30.039,30.039
		C79.114,867.088,65.667,880.536,49.075,880.536z M56.584,834.437h-15.02V851.5h-9.387l16.898,15.895L65.971,851.5h-9.387V834.437z"
		/>
</g>
<g>
	<path fill="#66C6E2" d="M182.351,116.702H115.6c-4.589,0-8.344,3.755-8.344,8.345v50.063c0,4.589,3.755,8.344,8.344,8.344h66.751
		c4.589,0,8.343-3.755,8.343-8.344v-50.063C190.694,120.457,186.939,116.702,182.351,116.702z M182.351,175.109H115.6v-50.063
		h66.751V175.109z M144.803,158.839h-20.86v7.509h20.86V158.839z M144.803,146.323h-20.86v7.509h20.86V146.323z M144.803,133.808
		h-20.86v7.509h20.86V133.808z M173.589,160.508c0,0-7.092-1.855-7.092-5.498c0-3.472,4.589-4.932,4.589-12.024
		c0-5.76-1.75-9.178-7.509-9.178c-5.761,0-7.509,3.417-7.509,9.178c0,7.092,4.587,8.553,4.587,12.024c0,3.642-7.09,5.498-7.09,5.498
		c-0.417,0-0.417,5.841-0.417,5.841h20.859C174.006,166.349,174.006,160.508,173.589,160.508z"/>
</g>
<g>
	<path fill="#66C6E2" d="M665.211,209.09h-31.705c-4.59,0-8.344,3.754-8.344,8.343v65.083c0,4.589,3.754,8.344,8.344,8.344h31.705
		c4.59,0,8.346-3.754,8.346-8.344v-65.083C673.557,212.845,669.801,209.09,665.211,209.09z M649.359,287.523
		c-3.225,0-5.842-1.867-5.842-4.172c0-2.305,2.617-4.172,5.842-4.172s5.84,1.867,5.84,4.172
		C655.199,285.656,652.584,287.523,649.359,287.523z M666.881,275.006h-35.045v-55.069h35.045V275.006z"/>
</g>
<path fill="#66C6E2" d="M581.361,220.173h-61.457c-4.226,0-7.682,3.457-7.682,7.682v42.251c0,4.226,3.389,8.361,7.533,9.19
	l16.793,3.357c0,0-14.454,5.122-5.121,5.122h38.41c9.334,0-5.121-5.122-5.121-5.122l16.795-3.357c4.142-0.83,7.531-4.965,7.531-9.19
	v-42.251C589.043,223.63,585.587,220.173,581.361,220.173z M581.361,269.723h-61.457v-42.636h61.457V269.723z"/>
<path fill="#66C6E2" d="M672.053,950.666c0,11.984-9.713,21.693-21.691,21.693c-11.984,0-21.695-9.709-21.695-21.693
	c0-1.428,0.143-2.82,0.404-4.172h-14.588v28.84c0,6.191,5.016,11.211,11.211,11.211h49.334c6.188,0,11.211-5.02,11.211-11.211
	v-28.84h-14.59C671.912,947.846,672.053,949.238,672.053,950.666z M675.027,914.789h-49.334c-6.195,0-11.211,5.02-11.211,11.213
	v12.148h18.16c3.932-5.549,10.398-9.178,17.719-9.178c7.316,0,13.785,3.629,17.713,9.178h18.164v-12.148
	C686.238,919.809,681.215,914.789,675.027,914.789z M680.508,928.639c0,1.104-0.9,2.004-2.002,2.004h-6.008
	c-1.102,0-2.004-0.9-2.004-2.004v-6.008c0-1.1,0.902-2.002,2.004-2.002h6.008c1.102,0,2.002,0.902,2.002,2.002V928.639z
	 M663.711,950.666c0-7.371-5.979-13.35-13.35-13.35c-7.375,0-13.352,5.979-13.352,13.35c0,7.375,5.977,13.35,13.352,13.35
	C657.732,964.016,663.711,958.041,663.711,950.666z"/>
<g>
	<g>
		<path fill="#66C6E2" d="M848.709,113.365c18.547,0,33.627,14.857,34.08,33.355h10.252l-15.346,17.104L862.35,146.72h11.914
			c-0.451-13.773-11.715-24.802-25.555-24.802c-14.125,0-25.576,11.486-25.576,25.657c0,14.17,11.451,25.657,25.576,25.657
			c5.666,0,10.896-1.85,15.135-4.977l5.863,6.275c-5.789,4.543-13.078,7.254-20.998,7.254c-18.834,0-34.102-15.315-34.102-34.209
			C814.607,128.682,829.875,113.365,848.709,113.365z"/>
	</g>
</g>
<g>
	<path fill="#66C6E2" d="M174.006,345.93h-50.063c-2.304,0-4.171,1.868-4.171,4.171c0,2.305,1.868,4.172,4.171,4.172h50.063
		c2.305,0,4.172-1.867,4.172-4.172C178.179,347.798,176.311,345.93,174.006,345.93z M123.943,337.586h50.063
		c2.305,0,4.172-1.867,4.172-4.171s-1.868-4.172-4.172-4.172h-50.063c-2.304,0-4.171,1.868-4.171,4.172
		S121.639,337.586,123.943,337.586z M174.006,362.618h-50.063c-2.304,0-4.171,1.868-4.171,4.171c0,2.305,1.868,4.172,4.171,4.172
		h50.063c2.305,0,4.172-1.867,4.172-4.172C178.179,364.486,176.311,362.618,174.006,362.618z"/>
</g>
<path fill="#66C6E2" d="M29.05,362.618h-4.172c-2.304,0-4.171,1.868-4.171,4.171c0,2.305,1.868,4.172,4.171,4.172h4.172
	c2.305,0,4.172-1.867,4.172-4.172C33.223,364.486,31.355,362.618,29.05,362.618z M29.05,345.93h-4.172
	c-2.304,0-4.171,1.868-4.171,4.171c0,2.305,1.868,4.172,4.171,4.172h4.172c2.305,0,4.172-1.867,4.172-4.172
	C33.223,347.798,31.355,345.93,29.05,345.93z M29.05,329.243h-4.172c-2.304,0-4.171,1.868-4.171,4.172s1.868,4.171,4.171,4.171
	h4.172c2.305,0,4.172-1.867,4.172-4.171S31.355,329.243,29.05,329.243z M45.738,337.586h29.204c2.304,0,4.172-1.867,4.172-4.171
	s-1.868-4.172-4.172-4.172H45.738c-2.304,0-4.172,1.868-4.172,4.172S43.434,337.586,45.738,337.586z M74.942,345.93H45.738
	c-2.304,0-4.172,1.868-4.172,4.171c0,2.305,1.868,4.172,4.172,4.172h29.204c2.304,0,4.172-1.867,4.172-4.172
	C79.114,347.798,77.246,345.93,74.942,345.93z M74.942,362.618H45.738c-2.304,0-4.172,1.868-4.172,4.171
	c0,2.305,1.868,4.172,4.172,4.172h29.204c2.304,0,4.172-1.867,4.172-4.172C79.114,364.486,77.246,362.618,74.942,362.618z"/>
<g>
	<path fill="#66C6E2" d="M342.298,353.729h23.363v-7.51h-23.363V353.729z M374.745,312.555h-41.72c-4.589,0-8.344,3.755-8.344,8.343
		v58.408c0,4.589,3.754,8.344,8.344,8.344h41.72c4.588,0,8.343-3.755,8.343-8.344v-58.408
		C383.088,316.31,379.333,312.555,374.745,312.555z M374.745,379.306h-41.72v-58.408h41.72V379.306z M365.566,329.95h-23.363v7.301
		h23.363V329.95z M365.566,362.699h-23.363V370h23.363V362.699z"/>
</g>
<path fill="#66C6E2" d="M471.603,312.555h-41.719c-4.59,0-8.345,3.755-8.345,8.343v58.408c0,4.589,3.755,8.344,8.345,8.344h41.719
	c4.589,0,8.344-3.755,8.344-8.344v-58.408C479.947,316.31,476.192,312.555,471.603,312.555z M433.268,329.95h34.94v7.301h-34.94
	V329.95z M468.208,370h-34.94v-7.301h34.94V370z M468.313,353.729h-34.94v-7.51h34.94V353.729z"/>
<g>
	<path fill="#66C6E2" d="M969.656,160.091c-2.865,0-5.5,0.975-7.609,2.597l-21.773-13.064c0.107-0.668,0.18-1.35,0.18-2.048
		c0-0.7-0.072-1.38-0.18-2.049l21.773-13.065c2.109,1.623,4.744,2.597,7.609,2.597c6.912,0,12.516-5.604,12.516-12.515
		s-5.604-12.516-12.516-12.516s-12.516,5.604-12.516,12.516c0,0.699,0.072,1.38,0.184,2.048l-21.773,13.064
		c-2.111-1.623-4.744-2.598-7.613-2.598c-6.91,0-12.516,5.605-12.516,12.517c0,6.911,5.605,12.516,12.516,12.516
		c2.869,0,5.502-0.975,7.613-2.598l21.773,13.065c-0.111,0.668-0.184,1.349-0.184,2.049c0,6.911,5.604,12.515,12.516,12.515
		s12.516-5.604,12.516-12.515C982.172,165.695,976.568,160.091,969.656,160.091z"/>
</g>
<g>
	<g>
		<path fill="#66C6E2" d="M141.862,279.179c-1.816,0-3.533-0.849-4.637-2.306l-14.91-19.689c-1.939-2.561-1.434-6.208,1.126-8.147
			c2.565-1.94,6.209-1.432,8.149,1.126l9.806,12.948l24.664-39.599c1.698-2.724,5.283-3.557,8.013-1.863
			c2.726,1.697,3.559,5.285,1.861,8.012L146.8,276.437c-1.012,1.626-2.759,2.648-4.672,2.736
			C142.038,279.177,141.95,279.179,141.862,279.179z"/>
	</g>
</g>
<g>
	<path fill="#66C6E2" d="M270.375,265.161l-13.287-15.185l13.287-15.185c2.258-2.259,2.258-5.919,0-8.177
		c-2.26-2.259-5.92-2.258-8.178,0l-12.776,14.601l-12.775-14.601c-2.257-2.258-5.918-2.259-8.178,0
		c-2.258,2.258-2.258,5.918,0,8.177l13.288,15.185l-13.288,15.185c-2.258,2.258-2.258,5.919-0.001,8.178
		c2.259,2.258,5.919,2.258,8.179,0l12.775-14.603l12.776,14.603c2.259,2.258,5.92,2.258,8.179,0
		C272.632,271.08,272.632,267.418,270.375,265.161z"/>
</g>
<g>
	<path fill="#66C6E2" d="M339.992,269.559l-3.377,3.354c-2.928,2.902-7.69,2.905-10.616,0c-1.406-1.395-2.179-3.25-2.179-5.22
		c0-1.972,0.773-3.827,2.179-5.222l12.433-12.335c2.576-2.555,7.424-6.318,10.956-2.814c1.622,1.61,4.239,1.6,5.849-0.021
		c1.61-1.62,1.6-4.239-0.021-5.847c-6.005-5.959-14.88-4.858-22.61,2.812l-12.434,12.336c-2.983,2.962-4.625,6.9-4.625,11.092
		c0,4.191,1.642,8.129,4.626,11.09c3.069,3.046,7.101,4.568,11.133,4.568c4.033,0,8.066-1.521,11.137-4.569l3.38-3.354
		c1.621-1.608,1.629-4.227,0.02-5.849C344.234,267.959,341.614,267.951,339.992,269.559z M377.67,221.644
		c-6.45-6.401-15.468-6.748-21.439-0.823l-4.21,4.178c-1.621,1.61-1.631,4.228-0.021,5.849c1.61,1.621,4.229,1.63,5.85,0.021
		l4.209-4.177c3.093-3.072,7.143-1.799,9.785,0.821c1.408,1.396,2.181,3.251,2.181,5.222c0,1.972-0.773,3.826-2.18,5.223
		l-13.265,13.158c-6.065,6.018-8.91,3.193-10.124,1.988c-1.622-1.608-4.239-1.599-5.849,0.021c-1.61,1.622-1.601,4.239,0.021,5.849
		c2.785,2.764,5.963,4.133,9.294,4.133c4.079,0,8.388-2.054,12.485-6.121l13.264-13.158c2.983-2.963,4.627-6.901,4.627-11.093
		C382.298,228.545,380.654,224.606,377.67,221.644z"/>
</g>
<g>
	<path fill="#66C6E2" d="M21.963,241.455c-4.705,0-8.521,3.816-8.521,8.521c0,4.706,3.815,8.521,8.521,8.521
		c4.706,0,8.521-3.815,8.521-8.521C30.484,245.271,26.669,241.455,21.963,241.455z M49.075,241.455
		c-4.705,0-8.521,3.816-8.521,8.521c0,4.706,3.815,8.521,8.521,8.521c4.705,0,8.52-3.815,8.52-8.521
		C57.595,245.271,53.78,241.455,49.075,241.455z M76.187,241.455c-4.706,0-8.521,3.816-8.521,8.521c0,4.706,3.816,8.521,8.521,8.521
		c4.705,0,8.521-3.815,8.521-8.521C84.708,245.271,80.892,241.455,76.187,241.455z"/>
</g>
<g>
	<path fill="#66C6E2" d="M474.775,216.6h-33.459c-4.588,0-8.26,3.671-8.26,8.261v33.458c0,4.589,3.755,8.344,8.344,8.344h33.375
		c4.59,0,8.344-3.754,8.344-8.344v-33.375C483.119,220.354,479.365,216.6,474.775,216.6z M474.775,258.319H441.4v-33.375h33.375
		V258.319z M424.711,249.976h-8.343v25.032c0,4.589,3.754,8.344,8.343,8.344h25.032v-8.344h-25.032V249.976z"/>
</g>
<path fill="#66C6E2" d="M379.459,24.371c-7.102-6.518-18.613-6.518-25.715,0l-4.821,4.425l-4.823-4.425
	c-7.101-6.518-18.612-6.518-25.713,0c-7.989,7.332-7.989,19.218,0,26.55l30.537,28.026l30.537-28.026
	C387.446,43.589,387.446,31.702,379.459,24.371z M374.936,46.563l-26.013,24.268l-26.012-24.268
	c-2.624-2.408-3.639-5.574-3.639-8.917c0-3.342,0.585-6.084,3.209-8.491c2.318-2.128,5.43-3.3,8.762-3.3
	c3.334,0,6.445,2.021,8.764,4.149l8.917,7.758l8.914-7.758c2.318-2.128,5.431-4.149,8.765-4.149c3.333,0,6.445,1.171,8.763,3.3
	c2.624,2.407,3.208,5.149,3.209,8.491C378.575,40.988,377.56,44.154,374.936,46.563z"/>
<g>
	<path fill="#66C6E2" d="M469.488,28.612c0-7.735,0-8.491,0-8.491c0-2.853-9.063-8.057-20.244-8.057
		c-11.182,0-20.244,5.204-20.244,8.057c0,0,0,0.756,0,8.491s14.015,14.126,14.015,19.603S429,60.081,429,67.817
		c0,7.735,0,8.491,0,8.491c0,2.853,9.063,8.056,20.244,8.056c11.181,0,20.244-5.203,20.244-8.056c0,0,0-0.756,0-8.491
		c0-7.736-14.015-14.126-14.015-19.603S469.488,36.348,469.488,28.612z M434.569,20.482c2.516-1.587,7.231-3.912,14.872-3.912
		c7.643,0,14.482,3.912,14.482,3.912c0.512,0.311,2.523,1.387,1.147,2.202c-3.032,1.795-8.96,3.686-15.827,3.686
		s-12.597-2.084-15.63-3.881C432.238,21.675,434.569,20.482,434.569,20.482z M451.056,48.215c0,4.313,3.601,7.09,7.414,10.797
		c2.786,2.707,6.601,6.415,6.601,8.806v4.801c-3.504-1.746-13.995-3.455-13.995-9.051c0-2.834-3.664-2.834-3.664,0
		c0,5.596-10.491,7.305-13.995,9.051v-4.801c0-2.391,3.814-6.099,6.601-8.806c3.813-3.707,7.414-6.484,7.414-10.797
		s-3.602-7.09-7.414-10.796c-2.786-2.709-6.601-6.416-6.601-8.807l-0.171-3.613c3.71,1.997,9.589,3.901,15.998,3.901
		c6.408,0,12.315-1.904,16.024-3.901l-0.197,3.613c0,2.391-3.814,6.098-6.601,8.807C454.657,41.125,451.056,43.902,451.056,48.215z"
		/>
</g>
<g>
	<path fill="#66C6E2" d="M787.054,278.312l-18.895-18.894c2.85-4.681,4.49-10.177,4.49-16.058c0-17.083-14.803-31.885-31.889-31.885
		c-17.082,0-30.932,13.85-30.932,30.934s14.803,31.885,31.885,31.885c5.68,0,11-1.538,15.574-4.21l18.996,18.997
		c1.859,1.859,4.873,1.859,6.73,0l4.713-4.71C789.587,282.51,788.913,280.17,787.054,278.312z M719.349,242.409
		c0-11.828,9.588-21.416,21.412-21.416c11.83,0,22.369,10.539,22.369,22.367c0,11.828-9.588,21.416-21.416,21.416
		C729.888,264.776,719.349,254.237,719.349,242.409z"/>
</g>
<path fill="#66C6E2" d="M831.342,291.173c1.201-3.921,3.012-9.437,5.444-17.417c10.59-1.709,14.972,1.359,21.695-10.897
	c-5.457,1.708-12.04-3.164-11.684-5.273c0.351-2.108,15.307,1.522,25.102-12.668c-12.345,2.776-16.295-3.338-14.704-4.262
	c3.681-2.133,14.586-0.887,20.399-6.665c2.997-2.974,4.399-10.206,3.183-12.788c-1.467-3.118-10.396-7.765-15.317-7.329
	c-4.917,0.436-12.645,19.128-14.934,18.98c-2.289-0.146-2.748-8.37,1.248-16.017c-4.216,1.901-11.938,7.824-14.362,12.878
	c-4.511,9.414,0.424,31.003-1.159,31.775c-1.581,0.769-6.907-9.909-8.494-14.748c-2.174,7.417-2.227,14.854,4.122,24.73
	c-2.396,6.479-3.705,13.939-3.903,17.727C827.889,292.236,830.814,292.886,831.342,291.173z"/>
<g>
	<path fill="#66C6E2" d="M569.758,342.689c-9.378-20.179-14.252-27.841-29.574-27.524c-5.457,0.112-4.146-3.953-8.307-2.41
		c-4.157,1.543-0.59,3.8-4.844,7.29c-11.937,9.797-10.836,18.861-5.301,40.463c2.334,9.097-5.622,9.545-2.474,18.365
		c2.298,6.431,19.239,9.123,37.115,2.491c17.874-6.632,29.157-19.797,26.86-26.227C580.084,346.316,573.709,351.185,569.758,342.689
		z M554.434,375.929c-15.965,5.924-29.084,2.438-29.639,0.891c-0.957-2.671,5.152-11.581,23.404-18.353
		c18.252-6.772,28.437-4.261,29.502-1.278C578.33,358.951,570.398,370.006,554.434,375.929z M549.302,361.559
		c-8.347,3.097-14.146,6.64-17.899,9.829c2.642,2.4,7.592,2.985,12.527,1.155c6.281-2.33,10.137-7.68,8.611-11.948
		c-0.018-0.052-0.045-0.098-0.064-0.148C551.447,360.786,550.39,361.155,549.302,361.559z"/>
</g>
<path fill="#66C6E2" d="M681.346,336.512c-6.553-15.247-17.098-26.86-22.435-24.69c-9.061,3.682,5.398,21.368-39.093,39.453
	c-3.844,1.563-4.818,7.814-3.21,11.552c1.604,3.737,6.862,7.457,10.707,5.895c0.663-0.27,3.106-1.056,3.106-1.056
	c2.744,3.683,5.617,1.499,6.637,3.839c1.223,2.813,3.887,8.926,4.791,11.006c0.906,2.078,2.96,4.004,4.449,3.438
	c1.486-0.566,6.548-2.492,8.484-3.229c1.936-0.737,2.396-2.461,1.805-3.823c-0.638-1.467-3.253-1.897-3.999-3.609
	c-0.746-1.712-3.185-7.197-3.886-8.926c-0.953-2.352,1.072-4.264,4.014-4.571c20.251-2.11,24.037,10.396,30.932,7.593
	C688.984,367.215,687.898,351.758,681.346,336.512z M679.065,361.245c-1.186,0.482-9.155-5.805-14.249-17.658
	c-5.092-11.85-4.451-22.685-3.268-23.165c1.184-0.481,8.956,7.101,14.049,18.952C680.689,351.224,680.25,360.764,679.065,361.245z"
	/>
<g>
	<path fill="#66C6E2" d="M786.242,352.518l-12.976-30.883c-1.029-2.059-3.751-3.746-6.048-3.746h-8.445l1.566,16.754h11.13
		l-21.022,17.434l-21.022-17.434h11.13l1.564-16.754h-8.442c-2.299,0-5.021,1.687-6.047,3.746l-12.978,30.883
		c-1.028,2.061-1.559,5.607-1.182,7.879l2.804,15.191c0.378,2.272,2.568,4.132,4.866,4.132h58.613c2.299,0,4.488-1.86,4.866-4.132
		l2.805-15.191C787.801,358.125,787.271,354.579,786.242,352.518z M780.625,363.339l-1.068,6.194
		c-0.318,2.378-2.46,4.322-4.758,4.322h-48.703c-2.297,0-4.439-1.944-4.759-4.322l-1.067-6.194
		c-0.318-2.378,1.301-4.323,3.599-4.323h53.157C779.324,359.017,780.943,360.961,780.625,363.339z"/>
</g>
<path fill="#66C6E2" d="M923.897,280.17c0,4.291,3.478,7.769,7.771,7.769s7.77-3.478,7.77-7.769c0-4.292-3.477-7.77-7.77-7.77
	S923.897,275.878,923.897,280.17z M962.747,280.17c0,4.291,3.478,7.769,7.77,7.769c4.294,0,7.771-3.478,7.771-7.769
	c0-4.292-3.477-7.77-7.771-7.77C966.225,272.4,962.747,275.878,962.747,280.17z M937.678,261.803l43-12.286
	c0.822-0.235,1.494-1.126,1.494-1.981v-21.367h-54.777v-6.604c0-0.855-0.699-1.554-1.555-1.554h-12.043
	c-0.854,0-1.555,0.699-1.555,1.554v6.216h7.552l7.644,35.185l0.733,3.665v5.828c0,0.854,0.7,1.554,1.554,1.554h1.943h38.849h10.101
	c0.856,0,1.555-0.7,1.555-1.554v-5.828h-43.697C934.009,264.63,933.918,262.879,937.678,261.803z"/>
<g>
	<path fill="#66C6E2" d="M873.881,337.695h-7.866v-6.118c0-12.662-5.833-20.104-17.481-20.104s-17.481,7.442-17.481,20.104v6.118
		h-8.741c-2.414,0-4.37,2.831-4.37,5.245v34.089c0,2.404,1.873,4.975,4.16,5.712l5.229,1.687c2.287,0.738,6.125,1.342,8.529,1.342
		h25.348c2.403,0,6.243-0.604,8.53-1.342l5.229-1.687c2.288-0.737,4.159-3.308,4.159-5.712v-34.089
		C879.126,340.525,876.295,337.695,873.881,337.695z M839.792,329.828c0-6.314,3.484-9.615,8.741-9.615c5.256,0,8.74,3.3,8.74,9.615
		v7.867h-17.481V329.828z"/>
</g>
<g>
	<path fill="#66C6E2" d="M976.927,339.88h-7.866v-10.489c0-12.662-5.832-20.104-17.481-20.104s-17.481,7.441-17.481,20.104v1.748
		h8.74v-3.496c0-6.315,3.484-9.615,8.741-9.615c5.256,0,8.74,3.3,8.74,9.615v12.237h-34.964c-2.413,0-4.37,2.83-4.37,5.244v34.089
		c0,2.404,1.873,4.974,4.161,5.712l5.228,1.687c2.288,0.738,6.127,1.342,8.531,1.342h25.348c2.403,0,6.241-0.604,8.529-1.342
		l5.229-1.687c2.288-0.739,4.161-3.309,4.161-5.712v-34.089C982.172,342.71,979.341,339.88,976.927,339.88z"/>
</g>
<g>
	<path fill="#66C6E2" d="M920.024,438.67h61.105c2.052,0,1.716-2.186,0.695-2.542c-1.021-0.356-12.376-4.648-14.353-4.648h-3.235
		v-10.783h-27.318v10.783h-3.234c-1.978,0-13.331,4.292-14.353,4.648C918.311,436.484,917.974,438.67,920.024,438.67z
		 M981.851,442.624h-62.544c-1.978,0-3.953,2.336-3.953,4.313v12.581c0,1.977,1.976,4.313,3.953,4.313h7.125l-3.171,17.972h54.635
		l-3.171-17.972h7.126c1.977,0,3.954-2.336,3.954-4.313v-12.581C985.805,444.96,983.827,442.624,981.851,442.624z M930.45,474.614
		l5.031-23.364h30.193l5.032,23.364H930.45z"/>
</g>
<g>
	<path fill="#66C6E2" d="M842.675,942.6c-0.771,0-1.397,0.626-1.397,1.395v10.6c0,0.771,0.626,1.4,1.397,1.4
		c0.771,0,1.397-0.629,1.397-1.4v-10.6C844.072,943.226,843.445,942.6,842.675,942.6z"/>
	<path fill="#66C6E2" d="M856.827,943.994c0.001-0.031,0.001-0.064,0-0.098c-0.024-0.772-0.675-1.375-1.447-1.351
		c-0.773,0.03-1.376,0.68-1.349,1.448v6.561l-5.432-7.396c-0.264-0.35-0.677-0.558-1.117-0.559c-0.149,0-0.303,0.023-0.445,0.07
		c-0.569,0.191-0.955,0.723-0.955,1.324v10.6c0,0.771,0.626,1.4,1.398,1.4c0.773,0,1.4-0.629,1.4-1.4v-6.553l5.432,7.393
		c0.266,0.354,0.682,0.563,1.123,0.563c0.771-0.003,1.395-0.632,1.395-1.403h-0.003V943.994z"/>
	<path fill="#66C6E2" d="M838.592,953.195h-3.902v-9.201c0-0.031,0-0.064,0-0.098c-0.027-0.772-0.677-1.375-1.447-1.351
		c-0.772,0.03-1.378,0.68-1.351,1.448v10.6c0,0.771,0.626,1.4,1.401,1.4h5.299c0.732-0.026,1.322-0.615,1.346-1.349
		C839.967,953.872,839.363,953.225,838.592,953.195z"/>
	<path fill="#66C6E2" d="M865.408,953.195h-3.9v-2.501h3.9c0.771,0,1.397-0.625,1.397-1.397c0-0.771-0.627-1.4-1.397-1.4h-3.9
		v-2.501h3.9c0.771,0,1.397-0.629,1.397-1.401c0-0.771-0.626-1.397-1.397-1.397h-5.301c-0.771,0.003-1.398,0.629-1.398,1.397v10.6
		c0.002,0.771,0.629,1.398,1.398,1.4h5.301c0.034,0.002,0.064,0.002,0.1,0c0.771-0.026,1.375-0.676,1.348-1.449
		C866.828,953.772,866.179,953.17,865.408,953.195z"/>
	<path fill="#66C6E2" d="M849.032,910.617c-22.224,0-40.228,18.004-40.228,40.228s18.004,40.229,40.228,40.229
		s40.229-18.005,40.229-40.229S871.256,910.617,849.032,910.617z M869.994,962.215c-5.598,6.44-18.114,14.288-20.96,15.484
		c-2.845,1.202-2.426-0.762-2.312-1.434c0.068-0.404,0.379-2.285,0.379-2.285c0.092-0.683,0.182-1.74-0.086-2.412
		c-0.298-0.74-1.48-1.139-2.347-1.316c-12.821-1.693-22.31-10.659-22.31-21.358c0-11.936,11.967-21.645,26.673-21.645
		c14.708,0,26.675,9.71,26.675,21.645C875.707,953.672,873.856,957.973,869.994,962.215z"/>
</g>
<path fill="#66C6E2" d="M548.965,427.353l-10.992,17.444l21.985,0.002L548.965,427.353z M548.967,475.147l10.991-17.443
	l-21.985-0.002L548.967,475.147z"/>
<polygon fill="#66C6E2" points="540.016,641.498 540.014,659.499 555.666,650.497 "/>
<polygon fill="#66C6E2" points="538.84,757.328 556.842,757.33 547.84,741.676 "/>
<polygon fill="#66C6E2" points="556.84,842.674 538.84,842.672 547.842,858.325 "/>
<polygon fill="#66C6E2" points="555.666,540.502 555.666,558.503 540.014,549.501 "/>
<g>
	<g>
		<g>
			<path fill="#66C6E2" d="M47.418,433.817h2.047h2.048l11.912,28.463h-2.873h-2.892l-2.829-7.346H44.08l-2.769,7.346h-2.893h-2.911
				L47.418,433.817z M45.949,450.031h6.994l-3.521-9.093h-0.014L45.949,450.031z"/>
		</g>
	</g>
	<g>
		<path fill="#66C6E2" d="M83,463.945C83,474.469,74.469,483,63.945,483H34.055C23.531,483,15,474.469,15,463.945v-29.89
			C15,423.531,23.531,415,34.055,415h29.891C74.469,415,83,423.531,83,434.055V463.945z M77,434.172
			C77,426.897,71.103,421,63.828,421H34.172C26.897,421,21,426.897,21,434.172v29.655C21,471.103,26.897,477,34.172,477h29.655
			C71.103,477,77,471.103,77,463.828V434.172z"/>
	</g>
</g>
<path fill="#66C6E2" d="M181.19,431.869c-1.846-10.943-11.831-18.251-22.304-16.321c-10.471,1.929-19.306,10.349-17.46,21.292
	c0.398,2.357,1.5,6.046,2.804,8.692l-19.015,28.38c-0.701,1.048-1.101,2.933-0.889,4.19l1.223,7.24
	c0.212,1.257,1.369,2.104,2.573,1.883l5.571-1.028c1.205-0.22,2.731-1.28,3.395-2.352l7.52-12.163l0.065-0.079l5.091-0.938
	l8.779-14.252c2.887,0.51,7.027,0.337,9.475-0.114C178.49,454.37,183.038,442.813,181.19,431.869z M171.916,437.479
	c-2.882,4.297-5.82,1.268-9.935-1.742c-4.112-3.01-7.842-4.862-4.963-9.158c2.881-4.299,8.549-5.345,12.664-2.334
	C173.794,427.253,174.794,433.18,171.916,437.479z"/>
<g>
	<path fill="#66C6E2" d="M261.466,466.835c-8.957-3.232-11.818-5.955-11.818-11.791c0-3.502,2.736-2.357,3.934-8.77
		c0.499-2.663,2.914-0.043,3.378-6.117c0-2.421-1.319-3.021-1.319-3.021s0.671-3.585,0.933-6.343
		c0.323-3.432-2.005-12.308-14.438-12.308c-12.431,0-14.766,8.876-14.438,12.308c0.262,2.758,0.932,6.343,0.932,6.343
		s-1.318,0.6-1.318,3.021c0.462,6.074,2.879,3.455,3.375,6.117c1.202,6.413,3.936,5.268,3.936,8.77
		c0,5.835-2.861,8.559-11.818,11.791c-1.079,0.388-3.649,0.993-5.834,1.935v14.43h57.521c0,0,0-5.315,0-7.568
		S270.454,470.075,261.466,466.835z M278.088,447.248v-10.786h-7.189v10.786h-10.786v7.19h10.786v10.786h7.189v-10.786h10.787v-7.19
		H278.088z"/>
</g>
<g>
	<path fill="#66C6E2" d="M350.59,421.713c-6.17-7.199-16.698-8.153-23.517-2.129c-6.816,6.022-9.578,16.077-3.408,23.276
		c1.329,1.55,3.76,3.767,5.88,5.13l-1.426,29.151c-0.052,1.075,0.485,2.632,1.193,3.459l4.083,4.763
		c0.709,0.828,1.93,0.938,2.713,0.246l3.625-3.206c0.785-0.691,1.438-2.139,1.451-3.216l0.15-12.217l0.012-0.086l3.315-2.929
		l0.153-14.3c2.338-0.898,5.293-2.847,6.887-4.255C358.52,439.376,356.761,428.912,350.59,421.713z M346.007,429.081
		c-0.218,4.425-3.703,3.661-8.041,3.47c-4.337-0.193-7.883,0.257-7.667-4.166c0.216-4.426,3.905-7.858,8.244-7.666
		C342.881,420.911,346.222,424.655,346.007,429.081z"/>
	<g>
		<path fill="#66C6E2" d="M366.291,472.623c0-4.842,0.504-6.96,5.145-10.239c1.967-1.362,3.127-2.926,3.127-4.993
			c0-3.934-2.774-4.994-4.893-4.994c-4.54,0-5.195,3.43-5.448,5.8v0.051h-7.111c0-8.776,6.607-11.803,12.105-11.803
			c3.026,0,12.912,0.857,12.912,10.743c0,4.085-2.219,6.507-6.103,9.281c-2.169,1.563-3.076,2.522-3.076,6.153H366.291z
			 M373.453,483.114h-7.364v-7.112h7.364V483.114z"/>
	</g>
</g>
<g>
	<path fill="#66C6E2" d="M419.031,430.397c1.682,0.904,24.982,13.248,25.849,13.713c0.868,0.467,1.991,0.605,3.124,0.605
		c1.133,0,2.256-0.268,3.124-0.735c0.867-0.465,24.168-12.658,25.851-13.563c1.683-0.903,3.277-3.418,0.183-3.418h-58.315
		C415.756,427,417.347,429.493,419.031,430.397z"/>
	<path fill="#66C6E2" d="M455,466.256c0-0.005-0.019-0.099-0.019-0.157c0-9.509,7.673-17.201,17.182-17.201
		c0.026,0,0.066,0.002,0.092,0.002c0.014,0,0.033-0.002,0.046-0.002c0.04,0,0.081,0.005,0.121,0.006
		c0.461,0.006,0.928,0.029,1.392,0.07c0.198,0.017,0.394,0.041,0.589,0.063c0.396,0.048,0.788,0.107,1.17,0.18
		c0.144,0.027,0.287,0.057,0.429,0.088c0.363,0.08,0.82,0.17,1.158,0.271c0.59,0.169,0.84,0.365,1.84,0.593
		c0-6.105,0-12.158,0-12.468c0-0.636,0.026-1.458-1.322-0.757c-1.912,0.998-25.385,13.276-26.557,13.887
		c-1.171,0.612-1.988,0.691-3.121,0.691c-1.133,0-1.95-0.079-3.122-0.691c-1.17-0.61-24.64-12.889-26.553-13.887
		c-1.345-0.701-1.326,0.121-1.326,0.757c0,0.635,0,25.285,0,25.285c0,1.445,1.908,3.012,3.402,3.012H455
		C455,466,455,466.257,455,466.256z"/>
	<path fill="#66C6E2" d="M483.622,473.418l7.552-8.418h-4.878c-0.585-7-6.454-12.318-13.444-12.318
		c-7.441,0-13.496,6.11-13.496,13.574s6.055,13.555,13.496,13.555c3.044,0,5.918-0.983,8.312-2.862l0.708-0.551l-3.295-3.525
		l-0.592,0.438c-1.497,1.104-3.271,1.688-5.133,1.688c-4.784,0-8.676-3.905-8.676-8.706s3.892-8.781,8.676-8.781
		c4.419,0,8.046,2.489,8.6,7.489h-5.383L483.622,473.418z"/>
</g>
<g>
	<path fill="#66C6E2" d="M256,335.42c0,1.977-1.603,3.58-3.579,3.58h-6.842c-1.977,0-3.579-1.603-3.579-3.58v-6.84
		c0-1.977,1.603-3.58,3.579-3.58h6.842c1.977,0,3.579,1.603,3.579,3.58V335.42z"/>
	<path fill="#66C6E2" d="M256,353.421c0,1.977-1.603,3.579-3.579,3.579h-6.842c-1.977,0-3.579-1.603-3.579-3.579v-6.842
		c0-1.977,1.603-3.579,3.579-3.579h6.842c1.977,0,3.579,1.603,3.579,3.579V353.421z"/>
	<path fill="#66C6E2" d="M256,372.421c0,1.977-1.603,3.579-3.579,3.579h-6.842c-1.977,0-3.579-1.603-3.579-3.579v-6.842
		c0-1.977,1.603-3.579,3.579-3.579h6.842c1.977,0,3.579,1.603,3.579,3.579V372.421z"/>
</g>
<path fill="#66C6E2" d="M655.142,473.32h-29.028v-50.544h29.028v10.831h7.142v-10.831c0-3.967-3.251-7.218-7.218-7.218h-28.88
	c-3.974,0-7.22,3.251-7.22,7.218v50.544c0,3.968,3.246,7.219,7.22,7.219h28.88c3.967,0,7.218-3.251,7.218-7.219v-10.491h-7.142
	V473.32z M683.946,448.764l-14.374-14.078v8.664h-32.491v10.827h32.491v8.665L683.946,448.764z"/>
<g>
	<path fill="#66C6E2" d="M876.131,427.48c-1.008-0.868-6.479-5.012-7.5-5.894c-1.021-0.882-2.621-1.13-3.745-1.13H832.18
		c-1.125,0-2.727,0.248-3.745,1.13c-1.021,0.882-6.493,5.025-7.501,5.894c-1.003,0.869-1.84,2.18-1.571,4.048
		c0.268,1.87,6.579,44.079,6.579,44.079c0.355,1.063,1.566,1.935,2.691,1.935h39.801c1.127,0,2.334-0.872,2.69-1.935
		c0,0,6.313-42.209,6.579-44.079C877.974,429.66,877.14,428.35,876.131,427.48z M848.534,457.048
		c-11.039,0-13.401-15.62-13.888-18.84h6.238c0.942,4.695,3.077,12.723,7.649,12.723c4.568,0,6.704-8.027,7.647-12.723h6.241
		C861.932,441.428,859.568,457.048,848.534,457.048z M824.622,432.01l7.495-7.814h32.83l7.496,7.814H824.622z"/>
</g>
<g>
	<path fill="#66C6E2" d="M771.104,432.049c0-3.391-3.375-3.391-3.375-3.391h-40.497c0,0-3.374,0-3.374,3.391v3.389h47.246V432.049z
		 M760.979,421.876H733.98c0,0-3.374,0-3.374,3.392h33.746C764.353,421.876,760.979,421.876,760.979,421.876z M777.855,435.438
		c-2.003-2.005-2.003-2.005-2.003-2.005v5.396h-56.748v-5.396c0,0,0,0-1.998,2.005c-1.998,2.008-3.429,2.546-2.627,6.785
		c0.802,4.222,4.676,27.377,5.252,30.511c0.63,3.434,4.126,3.39,4.126,3.39h47.246c0,0,3.49,0.044,4.123-3.39
		c0.578-3.134,4.451-26.289,5.251-30.511C781.283,437.983,779.849,437.445,777.855,435.438z M760.976,453.745
		c0,0,0,3.392-3.374,3.392h-20.247c-3.374,0-3.374-3.392-3.374-3.392v-6.779h4.726v5.424h17.538v-5.424h4.731V453.745z"/>
</g>
<path fill="#66C6E2" d="M924.076,540.128c3.369-2.619,6.161-0.815,9.891,3.501c0.417,0.481,0.985-0.085,1.301-0.365
	c0.319-0.276,5.239-4.7,5.479-4.912c0.24-0.207,0.528-0.604,0.146-1.05c-0.381-0.443-1.785-2.251-2.68-3.424
	c-6.521-8.533,17.848-14.316,14.102-14.411c-1.902-0.05-9.543-0.139-10.688-0.019c-4.632,0.494-10.438,4.817-13.368,6.826
	c-3.824,2.629-5.251,4.162-5.489,4.373c-1.086,0.943-0.172,3.13-2.138,4.845c-2.074,1.821-3.364,0.45-4.564,1.498
	c-0.6,0.526-2.264,1.776-2.741,2.192c-0.479,0.426-0.568,1.135-0.076,1.699c0,0,4.563,5.038,4.941,5.48
	c0.385,0.449,1.408,0.824,2.048,0.26c0.638-0.559,2.279-1.997,2.554-2.241C923.076,544.134,922.61,541.265,924.076,540.128z
	 M944.671,541.991c-0.428-0.5-0.961-0.51-1.431-0.104l-5.172,4.516c-0.407,0.359-0.462,1.022-0.099,1.442l29.92,34.047
	c0.699,0.812,1.916,0.893,2.714,0.189l3.501-2.927c0.801-0.704,0.88-1.93,0.186-2.732L944.671,541.991z M984.577,527.496
	c-0.272-1.782-1.196-1.407-1.674-0.649c-0.478,0.756-2.599,3.973-3.473,5.429c-0.866,1.449-3,4.299-6.979,1.484
	c-4.14-2.931-2.701-4.973-1.979-6.347c0.727-1.379,2.954-5.253,3.271-5.736c0.323-0.487-0.05-1.902-1.334-1.311
	c-1.287,0.594-9.1,3.702-10.188,8.152c-1.105,4.535,0.931,8.58-3.067,12.607l-4.841,5.055l4.863,5.651l5.971-5.665
	c1.425-1.434,4.456-2.818,7.207-2.197c5.895,1.336,9.107-0.878,11.041-4.534C985.128,536.163,984.844,529.278,984.577,527.496z
	 M922.655,576.784c-0.751,0.758-0.751,1.982-0.004,2.74l3.432,3.355c0.754,0.754,1.944,0.438,2.694-0.32l17.705-17.405l-5.425-6.177
	L922.655,576.784z"/>
<path fill="#66C6E2" d="M480.321,119.809h-64.629c-1.277,0-2.312,1.034-2.312,2.309v9.229h69.249v-9.229
	C482.63,120.843,481.596,119.809,480.321,119.809z M417.229,175.978c0,2.958,2.424,5.387,5.385,5.387h50.782
	c2.961,0,5.385-2.429,5.385-5.387v-40.781h-61.552V175.978z M436.465,142.893h23.081v7.688h-23.081V142.893z"/>
<g>
	<path fill="#66C6E2" d="M935.921,684.953c-4.604,0-8.915-1.953-12.026-5.066c-6.032-6.031-7.713-16.559,0.742-25.015
		c4.954-4.953,24.797-24.796,34.703-34.702c3.517-3.518,7.994-4.875,12.279-3.728c4.207,1.128,7.656,4.575,8.784,8.784
		c1.147,4.287-0.21,8.764-3.726,12.278l-33.188,33.188c-1.895,1.895-4.035,3.016-6.188,3.243c-2.13,0.225-4.164-0.461-5.587-1.884
		c-2.583-2.581-2.95-7.439,1.341-11.73l23.313-23.313c0.957-0.957,2.509-0.957,3.467,0c0.957,0.958,0.957,2.51,0,3.467
		l-23.312,23.313c-2.015,2.014-2.199,3.938-1.342,4.797c0.376,0.375,0.946,0.545,1.604,0.475c1.01-0.107,2.16-0.758,3.236-1.835
		l33.187-33.187c2.278-2.277,3.151-4.956,2.456-7.542c-0.682-2.548-2.77-4.634-5.316-5.319c-2.586-0.691-5.266,0.182-7.543,2.458
		c-9.906,9.907-29.75,29.751-34.703,34.704c-6.467,6.465-4.917,13.905-0.742,18.08c4.174,4.174,11.611,5.724,18.079-0.742
		l34.704-34.703c0.957-0.959,2.51-0.959,3.468,0c0.958,0.956,0.958,2.51,0,3.467l-34.704,34.703
		C944.817,683.235,940.238,684.953,935.921,684.953z"/>
</g>
<g>
	<path fill="#66C6E2" d="M750.448,517.635c-16.632,0-26.966,5.479-26.405,9.925l5.604,46.118c0.224,1.794,8.632,7.684,20.802,7.692
		c12.169-0.009,20.576-5.898,20.801-7.692l5.604-46.118C777.412,523.114,767.08,517.635,750.448,517.635z M750.448,534.31
		c-12.17-0.01-20.802-4.346-20.802-5.965c-0.007-1.61,8.632-5.953,20.802-5.946c12.167-0.007,20.808,4.336,20.801,5.946
		C771.249,529.964,762.617,534.3,750.448,534.31z"/>
</g>
<g>
	<g>
		<path fill="#66C6E2" d="M849.881,716.358c-18.305,0-33.145,14.841-33.145,33.146s14.84,33.145,33.145,33.145
			c18.307,0,33.146-14.84,33.146-33.145S868.188,716.358,849.881,716.358z M849.881,775.442c-14.324,0-25.938-11.613-25.938-25.938
			c0-14.326,11.614-25.939,25.938-25.939c14.328,0,25.939,11.613,25.939,25.939C875.82,763.829,864.209,775.442,849.881,775.442z"/>
		<polygon fill="#66C6E2" points="852.404,730.77 847.359,730.77 847.359,750.549 859.627,762.815 863.195,759.25 852.404,748.459 
					"/>
	</g>
</g>
<g>
	<path fill="#66C6E2" d="M976.661,824.046h-3.401v7.558h-12.093v-7.558h-21.92v7.558h-12.094v-7.558h-3.4
		c-4.156,0-7.558,3.401-7.558,7.558v45.349c0,4.158,3.401,7.56,7.558,7.56h52.908c4.156,0,7.558-3.401,7.558-7.56v-45.349
		C984.219,827.447,980.817,824.046,976.661,824.046z M976.661,876.952h-52.908V846.72h52.908V876.952z M935.847,816.487h-5.291
		v12.85h5.291V816.487z M969.857,816.487h-5.29v12.85h5.29V816.487z"/>
</g>
<path fill="#66C6E2" d="M869.221,619.465h-41.377c-3.794,0-6.896,3.104-6.896,6.896v48.275c0,3.793,3.103,6.895,6.896,6.895h41.377
	c3.794,0,6.898-3.102,6.898-6.895v-48.275C876.119,622.568,873.015,619.465,869.221,619.465z M869.221,674.637h-41.377v-48.275
	h41.377V674.637z M851.98,657.395h-17.24v3.449h17.24V657.395z M862.326,643.602h-13.794v3.449h13.794V643.602z M848.532,640.154
	h13.794v-6.896h-13.794V640.154z M845.084,633.258H834.74v13.793h10.344V633.258z M841.637,650.498h-6.896v3.449h6.896V650.498z
	 M845.084,653.947h17.242v-3.449h-17.242V653.947z M862.326,664.291H834.74v3.448h27.586V664.291z M855.429,660.844h6.897v-3.449
	h-6.897V660.844z"/>
<g>
	<path fill="#66C6E2" d="M681.575,617.232c-0.378-1.094-1.56-1.67-2.638-1.289c-1.081,0.381-1.65,1.576-1.274,2.668
		c3.188,9.258-3.142,16.171-7.965,19.873l-1.954-2.824c-0.654-0.943-2.12-1.73-3.258-1.746l-10.941,0.049
		c-1.137-0.02-2.832,0.51-3.764,1.172l-32.234,22.843c-1.563,1.106-1.941,3.284-0.85,4.865l14.651,21.177
		c1.095,1.58,2.851,1.392,4.412,0.285l32.233-22.842c0.934-0.663,2-2.095,2.375-3.184l3.428-10.909
		c0.371-1.089,0.145-2.753-0.51-3.696l-1.19-1.721C678.582,636.941,685.309,628.075,681.575,617.232z M666.577,649.672
		c-2.499,1.77-5.944,1.153-7.691-1.373c-1.749-2.53-1.144-6.014,1.357-7.785c1.983-1.406,4.559-1.304,6.411,0.061
		c-0.933,0.568-1.572,0.896-1.695,0.955c-1.033,0.494-1.475,1.741-0.988,2.787c0.354,0.76,1.098,1.204,1.875,1.204
		c0.295,0,0.596-0.064,0.881-0.2c0.664-0.317,1.381-0.701,2.127-1.146C669.188,646.23,668.378,648.396,666.577,649.672z"/>
</g>
<path fill="#66C6E2" d="M730.651,656.491l13.803,13.804l25.326-25.326l-13.803-13.803L730.651,656.491z M785.831,637.535
	l-5.872-5.875c-1.119,0.61-2.4,0.958-3.763,0.958c-4.346,0-7.869-3.522-7.869-7.868c0-1.362,0.349-2.644,0.959-3.763l-5.874-5.873
	c-1.53-1.53-4.032-1.53-5.563,0l-42.785,42.785c-1.529,1.529-1.529,4.032,0,5.562l5.874,5.874c1.118-0.609,2.4-0.956,3.763-0.956
	c4.345,0,7.867,3.521,7.867,7.866c0,1.362-0.348,2.645-0.958,3.764l5.874,5.873c1.53,1.529,4.033,1.529,5.563,0l42.783-42.784
	C787.361,641.567,787.361,639.064,785.831,637.535z M744.454,676.608l-20.115-20.117l31.641-31.639l20.114,20.116L744.454,676.608z"
	/>
<path fill="#66C6E2" d="M651.455,715.896c-18.531,0-33.605,15.079-33.605,33.608c0,18.531,15.074,33.606,33.605,33.606
	c18.532,0,33.607-15.075,33.607-33.606C685.063,730.975,669.987,715.896,651.455,715.896z M680.117,749.504
	c0,6.555-2.225,12.602-5.937,17.438c-1.05-0.824-2.166-3.039-1.116-5.336c1.059-2.311,1.335-7.658,1.094-9.738
	c-0.232-2.079-1.313-7.094-4.251-7.141c-2.933-0.045-4.944-1.014-6.688-4.492c-3.617-7.239,6.789-8.629,3.172-12.64
	c-1.013-1.124-6.242,4.634-7.008-3.042c-0.051-0.545,0.475-1.364,1.176-2.219C671.912,726.15,680.117,736.883,680.117,749.504z
	 M647.518,721.125c-0.686,1.334-2.494,1.877-3.597,2.882c-2.391,2.165-3.419,1.866-4.71,3.944c-1.299,2.078-5.484,5.076-5.484,6.578
	s2.115,3.278,3.172,2.933c1.058-0.347,3.844-0.328,5.484,0.247c1.641,0.581,13.704,1.16,9.861,11.356
	c-1.219,3.241-6.557,2.694-7.98,8.065c-0.211,0.785-0.947,4.15-0.998,5.252c-0.088,1.699,1.203,8.113-0.438,8.113
	c-1.648,0-6.084-5.736-6.084-6.775s-1.15-4.686-1.15-7.807s-5.309-3.071-5.309-7.22c0-3.745,2.879-5.606,2.23-7.399
	c-0.635-1.785-5.696-1.85-7.804-2.065C628.395,729.669,637.066,722.569,647.518,721.125z M642.44,776.702
	c1.722-0.907,1.896-2.081,3.457-2.147c1.788-0.08,3.239-0.697,5.252-1.137c1.786-0.391,4.98-2.204,7.796-2.438
	c2.371-0.192,7.053,0.125,8.314,2.415c-4.537,3.012-9.97,4.77-15.805,4.77C648.305,778.165,645.278,777.646,642.44,776.702z"/>
<g>
	<path fill="#66C6E2" d="M849.033,544.257c-5.878,0-10.641,4.766-10.641,10.64c0,5.879,4.763,10.641,10.641,10.641
		c5.875,0,10.641-4.762,10.641-10.641C859.674,549.022,854.908,544.257,849.033,544.257z M877.408,533.615h-8.514
		c-1.17,0-2.431-0.907-2.801-2.018l-2.199-6.604c-0.373-1.111-1.631-2.02-2.803-2.02h-24.118c-1.171,0-2.432,0.908-2.802,2.02
		l-2.199,6.604c-0.372,1.11-1.631,2.018-2.803,2.018h-8.512c-3.901,0-7.094,3.192-7.094,7.094v31.922
		c0,3.902,3.192,7.094,7.094,7.094h56.75c3.9,0,7.094-3.191,7.094-7.094v-31.922C884.502,536.808,881.309,533.615,877.408,533.615z
		 M849.033,572.631c-9.795,0-17.735-7.939-17.735-17.734c0-9.794,7.94-17.734,17.735-17.734c9.791,0,17.734,7.94,17.734,17.734
		C866.768,564.691,858.824,572.631,849.033,572.631z M874.925,545.67c-1.37,0-2.482-1.111-2.482-2.482s1.112-2.483,2.482-2.483
		c1.372,0,2.483,1.112,2.483,2.483S876.297,545.67,874.925,545.67z"/>
</g>
<g>
	<path fill="#66C6E2" d="M649.359,529.551c-23.373,0-35.628,17.221-35.628,19.952c0,2.729,12.255,19.951,35.628,19.951
		s35.629-17.222,35.629-19.951C684.988,546.771,672.732,529.551,649.359,529.551z M649.359,564.851
		c-8.745,0-15.836-6.871-15.836-15.348c0-8.478,7.091-15.349,15.836-15.349c8.746,0,15.836,6.871,15.836,15.349
		C665.195,557.979,658.105,564.851,649.359,564.851z M649.359,549.503c-1.45-1.593,2.363-7.675,0-7.675
		c-4.373,0-7.917,3.438-7.917,7.675s3.544,7.673,7.917,7.673c4.372,0,7.918-3.436,7.918-7.673
		C657.277,547.556,650.594,550.854,649.359,549.503z"/>
</g>
<path fill="#66C6E2" d="M732.378,738.336c0.728,0,1.427,0.111,2.089,0.314c2.495-2.796,5.261-5.34,8.258-7.598
	c-0.125-0.529-0.201-1.078-0.201-1.646c0-0.784,0.135-1.536,0.369-2.242c-3.354-2.406-7.006-4.428-10.888-5.99
	c-3.64,2.248-6.815,5.182-9.345,8.618c1.879,3.326,4.113,6.429,6.65,9.251C730.239,738.595,731.277,738.336,732.378,738.336z
	 M725.295,745.418c0-0.994,0.207-1.939,0.578-2.799c-2.272-2.495-4.332-5.188-6.135-8.058c-2.263,4.494-3.545,9.566-3.545,14.94
	c0,6.225,1.713,12.048,4.686,17.029c1.063-5.989,3.079-11.648,5.863-16.838C725.838,748.506,725.295,747.027,725.295,745.418z
	 M749.606,722.325c1.871,0,3.567,0.729,4.833,1.913c3.695-1.588,7.586-2.807,11.635-3.586c-4.887-2.816-10.55-4.436-16.595-4.436
	c-4.122,0-8.064,0.754-11.708,2.125c2.892,1.427,5.646,3.094,8.238,4.973C747.065,722.689,748.292,722.325,749.606,722.325z
	 M760.198,755.682c0.44-0.917,1.065-1.729,1.841-2.375c-2.091-6.434-5.402-12.316-9.668-17.377c-0.849,0.359-1.783,0.56-2.765,0.56
	c-1.536,0-2.954-0.495-4.114-1.325c-2.566,1.951-4.941,4.139-7.102,6.525c0.674,1.083,1.07,2.358,1.07,3.729
	c0,0.74-0.115,1.453-0.325,2.122C745.348,751.691,752.497,754.536,760.198,755.682z M769.383,765.24
	c0.098,1.342,0.15,2.694,0.15,4.061c0,2.402-0.154,4.77-0.443,7.094c5.643-4.123,9.941-9.976,12.109-16.782
	c-2.567,0.62-5.201,1.063-7.89,1.323C772.678,762.873,771.236,764.439,769.383,765.24z M758.537,760.441
	c-8.216-1.361-15.835-4.496-22.465-8.989c-1.076,0.661-2.339,1.05-3.694,1.05c-0.499,0-0.983-0.053-1.453-0.149
	c-3.174,6.017-5.201,12.729-5.786,19.847c3.17,3.398,7.037,6.135,11.381,7.973C741.912,771.879,749.452,765.018,758.537,760.441z
	 M771.824,724.832c-5.334,0.516-10.43,1.854-15.172,3.865c0.025,0.234,0.035,0.471,0.035,0.709c0,1.119-0.264,2.172-0.725,3.113
	c4.737,5.563,8.418,12.046,10.742,19.144c2.879,0.052,5.341,1.815,6.398,4.32c3.205-0.324,6.326-0.938,9.332-1.821
	c0.213-1.522,0.33-3.077,0.33-4.66C782.766,739.719,778.545,730.922,771.824,724.832z M762.102,764.225
	c-8.48,3.973-15.572,10.092-20.707,17.571c2.588,0.646,5.295,0.995,8.085,0.995c5.021,0,9.778-1.119,14.046-3.109
	c0.686-3.356,1.05-6.826,1.05-10.381c0-1.285-0.058-2.557-0.155-3.816C763.566,765.21,762.782,764.779,762.102,764.225z"/>
<path fill="#66C6E2" d="M944.495,716.858c-14.976,1.777-26.847,13.65-28.624,28.625h28.624V716.858z M952.686,716.914v32.858
	c0,2.154-1.746,3.9-3.902,3.9h-32.856c2.103,16.067,15.829,28.476,32.469,28.476c18.094,0,32.765-14.669,32.765-32.766
	C981.16,732.746,968.749,719.017,952.686,716.914z"/>
<g>
	<path fill="#66C6E2" d="M661.588,849h-25.176c-0.928,0-1.68-1.072-1.68-2s0.752-2,1.68-2h25.176c0.928,0,1.679,1.072,1.679,2
		S662.516,849,661.588,849z"/>
</g>
</svg>
